<svg width="102" height="54" viewBox="0 0 102 54" fill="none" xmlns="http://www.w3.org/2000/svg">
<path d="M10.28 53.32C9.63995 53.32 9.10662 53.0933 8.67995 52.64L0.679952 44.64C0.226618 44.2133 -4.86374e-05 43.68 -4.86374e-05 43.04V1C-4.86374e-05 0.333338 0.333285 4.76837e-06 0.999952 4.76837e-06H12.32C12.9866 4.76837e-06 13.32 0.333338 13.32 1V42.6H22.28V1C22.28 0.333338 22.6133 4.76837e-06 23.28 4.76837e-06H34.6C35.2666 4.76837e-06 35.6 0.333338 35.6 1V42.6H44.52V1C44.52 0.333338 44.8533 4.76837e-06 45.52 4.76837e-06H56.88C57.5466 4.76837e-06 57.88 0.333338 57.88 1V43.04C57.88 43.68 57.6533 44.2133 57.2 44.64L49.2 52.64C48.7466 53.0933 48.2133 53.32 47.6 53.32H38.2C37.5866 53.32 37.0533 53.0933 36.6 52.64L29.88 45.92H28L21.28 52.64C20.8266 53.0933 20.2933 53.32 19.68 53.32H10.28ZM68.5 53.32C67.8333 53.32 67.5 52.9867 67.5 52.32V1C67.5 0.333338 67.8333 4.76837e-06 68.5 4.76837e-06H91.22C91.86 4.76837e-06 92.3933 0.213339 92.82 0.640006L100.82 8.64C101.273 9.09334 101.5 9.62667 101.5 10.24V52.32C101.5 52.9867 101.167 53.32 100.5 53.32H89.18C88.5133 53.32 88.18 52.9867 88.18 52.32V10.64H80.82V52.32C80.82 52.9867 80.4866 53.32 79.82 53.32H68.5Z" fill="black"/>
</svg>
